<svg xmlns="http://www.w3.org/2000/svg" viewBox="0 0 157 161.1"><g id="Livello_2" data-name="Livello 2"><g id="Objects"><circle cx="101.6" cy="70" r="5.7" style="fill:#ec7ed3"/><circle cx="82.1" cy="118.5" r="5.3" style="fill:#ec7ed3"/><circle cx="62" cy="29.5" r="5.3" style="fill:#ec7ed3"/><circle cx="110.5" cy="28" r="4.8" style="fill:#ec7ed3"/><circle cx="83.7" cy="4.3" r="4.3" style="fill:#ec7ed3"/><circle cx="36" cy="15.5" r="4.3" style="fill:#ec7ed3"/><circle cx="129.8" cy="23.7" r="4.3" style="fill:#ec7ed3"/><circle cx="151.9" cy="61.6" r="4.3" style="fill:#ec7ed3"/><circle cx="95.2" cy="157.3" r="3.8" style="fill:#ec7ed3"/><circle cx="132" cy="138.2" r="3.8" style="fill:#ec7ed3"/><circle cx="153.2" cy="98.9" r="3.8" style="fill:#ec7ed3"/><circle cx="62.5" cy="5.4" r="3.8" style="fill:#ec7ed3"/><circle cx="17.3" cy="131.1" r="3.8" style="fill:#ec7ed3"/><circle cx="51.8" cy="155.1" r="3.8" style="fill:#ec7ed3"/><circle cx="3.8" cy="92.4" r="3.8" style="fill:#ec7ed3"/><circle cx="142.8" cy="61.3" r="4.8" style="fill:#ec7ed3"/><circle cx="129.4" cy="113.3" r="4.8" style="fill:#ec7ed3"/><circle cx="92.4" cy="151" r="4.3" style="fill:#ec7ed3"/><circle cx="20.6" cy="48.3" r="4.3" style="fill:#ec7ed3"/><circle cx="5.1" cy="52.3" r="4.3" style="fill:#ec7ed3"/><circle cx="40.7" cy="133.6" r="4.3" style="fill:#ec7ed3"/><circle cx="6.2" cy="92.6" r="4.3" style="fill:#ec7ed3"/><circle cx="44.4" cy="82.5" r="5.3" style="fill:#ec7ed3"/><path d="M140.6,55.1l.9-.4-3.2-9.2-5.5-16.1-.9.4Z" style="fill:#ec7ed3"/><path d="M85.2,125.2a1.6,1.6,0,0,1-.9.3l6.2,19.7.9-.3-2.9-9.3Z" style="fill:#ec7ed3"/><path d="M145.4,67.7l-.9.2,6.7,25.7,1-.3-5.3-20.1Z" style="fill:#ec7ed3"/><path d="M117.7,27l6.6-1.5c0-.1-.1-.1-.1-.2a2,2,0,0,1-.1-.7L117.4,26Z" style="fill:#ec7ed3"/><path d="M106.2,23.1l-17-15-.7.7,17.1,15.1Z" style="fill:#ec7ed3"/><path d="M9.1,86.8,19.6,54.5l-.9-.3L8.1,86.4Z" style="fill:#ec7ed3"/><path d="M56.2,25.8v-.2L42.2,18l-.3.7c-.1,0-.1.1-.2.2l14.1,7.6Z" style="fill:#ec7ed3"/><path d="M115.3,33.2l21.3,22,1.6,1.6a4.6,4.6,0,0,1,.7-.7L116,32.5A4.6,4.6,0,0,0,115.3,33.2Z" style="fill:#ec7ed3"/><path d="M105.8,76.7l20,31.2.9-.5L106.6,76.2Z" style="fill:#ec7ed3"/><path d="M69.7,29.8l34.5-1.1v-1l-18.7.6-15.9.5A3.1,3.1,0,0,1,69.7,29.8Z" style="fill:#ec7ed3"/><path d="M27,46.2,56.1,33a4.1,4.1,0,0,1-.5-.9L44.9,36.9,26.6,45.3A3.6,3.6,0,0,1,27,46.2Z" style="fill:#ec7ed3"/><path d="M24.3,53.8l16.1,23,.8-.6-16.1-23Z" style="fill:#ec7ed3"/><path d="M12.4,110.8,8.9,98.4l-1,.3,5.8,20-2.9-7.6L6.2,98.8H5.1l10.2,27.1,1.3-.4Z" style="fill:#ec7ed3"/><path d="M10,47.9,32.8,20.6,32,20,9.2,47.2Z" style="fill:#ec7ed3"/><path d="M126.8,139.5l-28.2,9.1a3.6,3.6,0,0,1,.4.9l2.9-.9,25-8.1-26.4,13.7a2.2,2.2,0,0,1,.5.8l26.5-13.7A6.7,6.7,0,0,1,126.8,139.5Z" style="fill:#ec7ed3"/><path d="M150.7,103.9l-.6-.4-15.4,29.3.7.3.2.2L150.9,104Z" style="fill:#ec7ed3"/><path d="M42.6,13.9c0,.2.1.4.1.6l10.5-2.4L60,10.5h0l-1-.7L43.8,13.2,57.7,8l-.3-1L42.2,12.8C42.3,13.1,42.5,13.5,42.6,13.9Z" style="fill:#ec7ed3"/><path d="M4.3,86.6h.2l.9-20.4.3,8.2L6,86.3H7L6.3,61.1V58.6H4.8l-1.3,28Z" style="fill:#ec7ed3"/><path d="M148.8,56.5l.9-.6L133.9,28.8l-.9.5Z" style="fill:#ec7ed3"/><path d="M66.9,141.7l-19.7-6.5a3.2,3.2,0,0,1-.3.9l39.8,13.4.3-1Z" style="fill:#ec7ed3"/><path d="M15,49.9a4.3,4.3,0,0,1-.1-.5l-3.4.9.3,1,3.4-.9Z" style="fill:#ec7ed3"/><path d="M152,67.9l.5,25.3h1L153,67.9h-1Z" style="fill:#ec7ed3"/><path d="M43.6,139.4l5.5,10.8.9-.5L44.4,139Z" style="fill:#ec7ed3"/><path d="M125.5,118.5l-.7-.7-22.1,22.5-5.8,5.9a4.6,4.6,0,0,1,.7.7L118,126.2Z" style="fill:#ec7ed3"/><path d="M34.8,133.4c0-.3.1-.6.1-1l-4.9-.5-6.4-.7c0,.3-.1.7-.1,1Z" style="fill:#ec7ed3"/><path d="M24.2,42.9,34.3,21.4l-.9-.5L23.3,42.5Z" style="fill:#ec7ed3"/><path d="M36.7,129.1l.8-.6L11.1,97l-.8.7,22.1,26.4Z" style="fill:#ec7ed3"/><path d="M131.1,120h-1l1.2,12.4h1Z" style="fill:#ec7ed3"/><path d="M67.5,24.4l12.9-15-.7-.7-12.9,15Z" style="fill:#ec7ed3"/><path d="M89.8,157.5a3.4,3.4,0,0,1,.1-1h-.1l-15.3-.8-15.6-.8,27.7-2.8a3.8,3.8,0,0,0-.1-1L58.3,154H58a6.1,6.1,0,0,1,0,1.9Z" style="fill:#ec7ed3"/><path d="M47.2,152.2l.6-.8L32.5,140.7,22.8,134h0l-.6.8,25,17.4Z" style="fill:#ec7ed3"/><path d="M68.7,6l9-.7L68.4,7.5a5.9,5.9,0,0,0-.4.8l-.3.4L78.2,6.2a6.3,6.3,0,0,1-.3-1.9L68.7,5A3.4,3.4,0,0,1,68.7,6Z" style="fill:#ec7ed3"/><path d="M148.8,102.1l-.5-.9-1.6,1-11.4,7.1.6.9,6.4-4Z" style="fill:#ec7ed3"/><path d="M89.7,7.2l34.6,14.5a3.6,3.6,0,0,1,.4-.9L90.1,6.3A3.6,3.6,0,0,1,89.7,7.2Z" style="fill:#ec7ed3"/><path d="M77.7,113.1l-27.2-26-.7.7L77,113.9Z" style="fill:#ec7ed3"/><path d="M96.3,64.8l.7-.7-8.4-8.6L67.8,34.3a2.3,2.3,0,0,1-.7.7L86.8,55.1Z" style="fill:#ec7ed3"/><path d="M47.7,75.7,60.6,36.5l-.9-.3-13,39.2Z" style="fill:#ec7ed3"/><path d="M141.1,67.7l-10,39,.9.2L142,68Z" style="fill:#ec7ed3"/><path d="M104.1,62.5,110,34.7l-.9-.2L105.8,50l-2.6,12.3Z" style="fill:#ec7ed3"/><path d="M98.7,76.9,84.8,111.6l.9.4L99.6,77.3Z" style="fill:#ec7ed3"/><path d="M94.6,71.9a1.9,1.9,0,0,1-.2-.8L51.9,80.4v.2l.2.8,42.5-9.3Z" style="fill:#ec7ed3"/><path d="M75.6,120.5,46.8,131a3.6,3.6,0,0,1,.4.9L76,121.4A3.6,3.6,0,0,1,75.6,120.5Z" style="fill:#ec7ed3"/><path d="M136.5,62.2l-27,5.7c.1.3.1.6.2,1l27-5.7C136.6,62.9,136.6,62.5,136.5,62.2Z" style="fill:#ec7ed3"/><path d="M123.2,114.6c0-.4-.1-.7-.1-1l-18.6,2-14.8,1.6a3.4,3.4,0,0,1,.1,1l23.5-2.6Z" style="fill:#ec7ed3"/><path d="M37.9,84.3c0-.2-.1-.3-.1-.5L12.6,90.5a2.9,2.9,0,0,1,.2.9L38,84.8C38,84.6,37.9,84.5,37.9,84.3Z" style="fill:#ec7ed3"/><path d="M42.1,127.4l2.8-37.7h-1l-2.8,37.7h1Z" style="fill:#ec7ed3"/><path d="M51,78.5,94.4,69a7.7,7.7,0,0,1,.7-2.6L65.4,36a8.9,8.9,0,0,1-2.8.7l-13.2,40A6.9,6.9,0,0,1,51,78.5Z" style="fill:#ec7ed3"/><path d="M51.5,85.3l27.9,26.6a7.1,7.1,0,0,1,3.2-.7h.2L97,75.7a6.9,6.9,0,0,1-1.6-1.8L52.1,83.4A8.2,8.2,0,0,1,51.5,85.3Z" style="fill:#ec7ed3"/><path d="M38.6,78.7l.4-.5L29.8,65.1A49.5,49.5,0,0,0,27.2,81c0,1.2,0,2.3.1,3.4l10.4-2.7A8,8,0,0,1,38.6,78.7Z" style="fill:#ec7ed3"/><path d="M102,77.6h-.4L87.4,113a7.2,7.2,0,0,1,1.7,2.2l26.4-2.9A56.8,56.8,0,0,0,121,104L103.9,77.4Z" style="fill:#ec7ed3"/><path d="M124.8,67.7l-15.1,3.1a7.1,7.1,0,0,1-1,3l-.6.9,15.3,23.9A49.9,49.9,0,0,0,126.6,81,48.5,48.5,0,0,0,124.8,67.7Z" style="fill:#ec7ed3"/><path d="M78.9,124.7,77,123.1l-14.8,5.4a48,48,0,0,0,14.7,2.2,50.7,50.7,0,0,0,6.8-.4l-1.5-4.7A6.6,6.6,0,0,1,78.9,124.7Z" style="fill:#ec7ed3"/><path d="M88.8,122.1a5.8,5.8,0,0,1-1.8,2l1.6,5.2a49.1,49.1,0,0,0,21.6-11.4l-20.6,2.3A5.2,5.2,0,0,1,88.8,122.1Z" style="fill:#ec7ed3"/><path d="M39,86.5h-.5L27.9,89.4a49.7,49.7,0,0,0,12.1,25L41.9,89l-.7-.4A5.6,5.6,0,0,1,39,86.5Z" style="fill:#ec7ed3"/><path d="M75.9,115.5,48.1,88.9l-1.2.4-2.2,29.6a52.9,52.9,0,0,0,10.5,6.9l20.1-7.4A7.2,7.2,0,0,1,75.9,115.5Z" style="fill:#ec7ed3"/><path d="M108.7,65.9l14.5-3a48.9,48.9,0,0,0-11.2-17c-.6-.7-1.3-1.3-1.9-1.9L106,63.2A9.9,9.9,0,0,1,108.7,65.9Z" style="fill:#ec7ed3"/><path d="M57.8,35A51,51,0,0,0,41.7,45.9,49.7,49.7,0,0,0,32,59.5L43.1,75.4a4.1,4.1,0,0,1,1.6-.3l13.2-40Z" style="fill:#ec7ed3"/><path d="M101.1,62.2l4.6-21.7a49.4,49.4,0,0,0-26-9.1l-8.7.2-1.8.3c-.1.2-.1.4-.2.6L98.7,62.9A10.9,10.9,0,0,1,101.1,62.2Z" style="fill:#ec7ed3"/></g></g></svg>