<svg xmlns="http://www.w3.org/2000/svg" viewBox="0 0 123.4 105.1"><g id="Livello_2" data-name="Livello 2"><g id="OBJECTS"><path d="M32.4,105.1C15.5,105.1,11,91.2,11,83.8V65.2L1,55.2a3.7,3.7,0,0,1,0-5L11,40.1V21.3C11,4.5,25,0,32.4,0a3.5,3.5,0,0,1,3.5,3.5A3.5,3.5,0,0,1,32.4,7C30.9,7,18,7.5,18,21.3V41.5A3.5,3.5,0,0,1,17,44L8.4,52.7,17,61.2a3.5,3.5,0,0,1,1,2.5V83.8c.1,1.4.6,14.3,14.4,14.3a3.5,3.5,0,0,1,3.5,3.5A3.5,3.5,0,0,1,32.4,105.1Z" style="fill:#ec7ed3"/><path d="M91,105.1a3.4,3.4,0,0,1-3.5-3.5A3.5,3.5,0,0,1,91,98.1c13.8,0,14.3-12.9,14.3-14.3V63.7a3.9,3.9,0,0,1,1-2.5l8.6-8.5L106.3,44a3.9,3.9,0,0,1-1-2.5V21.3C105.3,7.5,92.4,7,91,7a3.5,3.5,0,0,1-3.5-3.5A3.5,3.5,0,0,1,91,0c7.3,0,21.3,4.5,21.3,21.3V40.1l10,10.1a3.5,3.5,0,0,1,0,5l-10,10V83.8C112.3,91.2,107.8,105.1,91,105.1Z" style="fill:#ec7ed3"/><path d="M61.7,88.1a1.3,1.3,0,0,1-1.2-.6l-27.2-38a1.5,1.5,0,0,1-.1-1.6l6.8-13a1.6,1.6,0,0,1,1.4-.8H82a1.3,1.3,0,0,1,1.3.8l6.9,13a1.6,1.6,0,0,1-.2,1.6l-27.1,38A1.4,1.4,0,0,1,61.7,88.1ZM36.3,48.5,61.7,84,87.1,48.5l-6-11.4H42.3Z" style="fill:#ec7ed3"/><path d="M61.7,88.1a1.5,1.5,0,0,1-1.5-1l-11.9-38a1.1,1.1,0,0,1,0-.8l3-13a1.4,1.4,0,0,1,1.4-1.2H70.6a1.6,1.6,0,0,1,1.5,1.2l3,13a2.5,2.5,0,0,1-.1.8l-11.9,38A1.5,1.5,0,0,1,61.7,88.1ZM51.3,48.6l10.4,33,10.4-33L69.4,37.1H53.9Z" style="fill:#ec7ed3"/><path d="M88.8,50.1H34.5a1.5,1.5,0,0,1,0-3H88.8a1.5,1.5,0,0,1,0,3Z" style="fill:#ec7ed3"/><path d="M61.7,28.7a1.4,1.4,0,0,1-1.5-1.5V18.5A1.5,1.5,0,0,1,61.7,17a1.5,1.5,0,0,1,1.5,1.5v8.7A1.5,1.5,0,0,1,61.7,28.7Z" style="fill:#ec7ed3"/><path d="M53.6,30.5a1.3,1.3,0,0,1-1.3-.7l-4.4-7.6a1.4,1.4,0,0,1,.6-2,1.5,1.5,0,0,1,2,.5l4.4,7.6a1.5,1.5,0,0,1-.6,2A1,1,0,0,1,53.6,30.5Z" style="fill:#ec7ed3"/><path d="M69.8,30.5a1.2,1.2,0,0,1-.8-.2,1.5,1.5,0,0,1-.5-2l4.3-7.6a1.6,1.6,0,0,1,2.1-.5,1.4,1.4,0,0,1,.5,2l-4.3,7.6A1.5,1.5,0,0,1,69.8,30.5Z" style="fill:#ec7ed3"/></g></g></svg>